<svg xmlns="http://www.w3.org/2000/svg" viewBox="0 0 1140 980" width="1140" height="980" font-family="Helvetica, Arial, sans-serif" font-size="30">
  <title>UV map of the pyramid</title>
  <rect width="1140" height="980" fill="white"/>
  <g stroke="black" stroke-width="3" stroke-linecap="round">
    <line x1="170" y1="890" x2="970" y2="890"/>
    <line x1="970" y1="890" x2="970" y2="90"/>
    <line x1="970" y1="90" x2="170" y2="90"/>
    <line x1="170" y1="90" x2="170" y2="890"/>
    <line x1="570" y1="737.2" x2="817.2" y2="490"/>
    <line x1="817.2" y1="490" x2="570" y2="242.8"/>
    <line x1="570" y1="242.8" x2="322.8" y2="490"/>
    <line x1="322.8" y1="490" x2="570" y2="737.2"/>
    <line x1="170" y1="90" x2="570" y2="242.8"/>
    <line x1="970" y1="90" x2="570" y2="242.8"/>
    <line x1="970" y1="90" x2="817.2" y2="490"/>
    <line x1="970" y1="890" x2="817.2" y2="490"/>
    <line x1="970" y1="890" x2="570" y2="737.2"/>
    <line x1="170" y1="890" x2="570" y2="737.2"/>
    <line x1="170" y1="890" x2="322.8" y2="490"/>
    <line x1="170" y1="90" x2="322.8" y2="490"/>
  </g>
  <g fill="black">
    <circle cx="170" cy="890" r="7"/>
    <circle cx="970" cy="890" r="7"/>
    <circle cx="970" cy="90" r="7"/>
    <circle cx="170" cy="90" r="7"/>
    <circle cx="570" cy="737.2" r="7"/>
    <circle cx="817.2" cy="490" r="7"/>
    <circle cx="570" cy="242.8" r="7"/>
    <circle cx="322.8" cy="490" r="7"/>
  </g>
  <g fill="black">
    <text x="170" y="68" text-anchor="middle">(0.0000, 1.0000)</text>
    <text x="970" y="68" text-anchor="middle">(1.0000, 1.0000)</text>
    <text x="170" y="934.5" text-anchor="middle">(0.0000, 0.0000)</text>
    <text x="970" y="934.5" text-anchor="middle">(1.0000, 0.0000)</text>
    <text x="570" y="182" text-anchor="middle">(0.5000, 0.8090)</text>
    <text x="570" y="820" text-anchor="middle">(0.5000, 0.1910)</text>
    <text x="338.8" y="500.5" text-anchor="start">(0.1910, 0.5000)</text>
    <text x="801.2" y="500.5" text-anchor="end">(0.8090, 0.5000)</text>
  </g>
</svg>
